<?xml version="1.0" encoding="UTF-8" standalone="no"?>
<!-- Created with Inkscape (http://www.inkscape.org/) -->

<svg
   xmlns:dc="http://purl.org/dc/elements/1.1/"
   xmlns:cc="http://creativecommons.org/ns#"
   xmlns:rdf="http://www.w3.org/1999/02/22-rdf-syntax-ns#"
   xmlns:svg="http://www.w3.org/2000/svg"
   xmlns="http://www.w3.org/2000/svg"
   version="1.1"
   width="744.09448"
   height="1052.3622"
   id="svg2">
  <defs
     id="defs4" />
  <metadata
     id="metadata7">
    <rdf:RDF>
      <cc:Work
         rdf:about="">
        <dc:format>image/svg+xml</dc:format>
        <dc:type
           rdf:resource="http://purl.org/dc/dcmitype/StillImage" />
        <dc:title></dc:title>
      </cc:Work>
    </rdf:RDF>
  </metadata>
  <g
     transform="translate(-54.664229,-153.54377)"
     id="layer1">
    <path
       d="M 653.06362,382.12597 L 677.30728,312.93052 L 667.20576,300.30361 L 663.16515,282.12087 L 658.11438,227.06755 L 659.12454,200.29851 L 653.5687,198.27821 L 598.01031,195.75282 L 585.3834,162.92287 L 561.13974,164.43809 L 551.03821,191.20714 L 529.82501,219.99648 L 505.07627,237.16908 L 495.9849,240.19954 L 488.40876,243.22999 L 477.80215,249.79598 L 471.74124,256.86705 L 469.72093,268.98888 L 469.21586,282.62594 L 470.22601,301.31376 L 473.25647,324.54727 L 472.75139,334.6488 L 462.64987,359.90261 L 457.09403,377.58028 L 429.81991,374.54982 L 429.81991,379.60059 L 456.58895,381.62089 L 455.5788,410.91532 L 451.03311,425.56253 L 433.86052,436.16913 L 387.89858,447.28081 L 368.70568,456.37218 L 261.62951,514.45595 L 231.32493,466.47371 L 191.42391,484.65645 L 180.81731,472.02955 L 131.82491,498.29351 L 88.388348,488.69706 L 81.31728,418.49146 L 80.812204,391.21734 L 61.114229,373.0346 L 84.347738,355.862 L 92.934034,359.39754 L 188.39345,292.22239 L 203.54574,309.39499 L 199.50513,317.47621 L 163.64471,330.60819 L 164.14979,339.69956 L 113.64216,368.48891 L 94.954339,375.0549 L 103.54064,386.16658 L 142.93659,366.4686 L 270.21581,279.09041 L 301.02546,223.02694 L 371.23106,185.6513 L 428.30468,180.60054 L 555.5839,162.92287 L 558.61436,170.49901 L 537.40115,207.36958 L 539.92654,210.40004 L 579.32249,219.49141 L 597.50523,201.30866 L 636.90118,200.80359 L 634.3758,224.03709 L 648.01286,232.62339 L 651.04332,240.70461 L 653.5687,287.67671 L 671.75144,313.94067 L 666.1956,336.16403 L 671.75144,345.2554 L 656.09408,391.72242 L 647.00271,405.86455 L 631.85042,414.45085 L 608.61691,414.95593 L 590.93924,408.38993 L 576.29203,385.6615 L 564.1702,357.37723 L 554.06867,338.68941 L 529.82501,324.0422 L 533.36054,320.00159 L 552.55344,330.10311 L 565.68543,348.28586 L 580.33264,378.08536 L 590.93924,398.79349 L 600.53569,407.88486 L 614.17275,410.41024 L 637.91133,405.35948 L 623.7692,396.2681 L 611.14229,389.19704 L 620.73874,386.16658 L 623.7692,379.09551"
       id="path3050"
       style="fill:none;stroke:#0b33ff;stroke-width:2.9000001;stroke-linecap:round;stroke-linejoin:miter;stroke-miterlimit:4;stroke-opacity:1;stroke-dasharray:none" />
  </g>
</svg>
